<?xml version="1.0" standalone="no"?><!DOCTYPE svg PUBLIC "-//W3C//DTD SVG 1.1//EN" "http://www.w3.org/Graphics/SVG/1.1/DTD/svg11.dtd"><svg class="icon" width="512px" height="512.00px" viewBox="0 0 1024 1024" version="1.1" xmlns="http://www.w3.org/2000/svg"><path fill="#333333" d="M411 898.5c9.1 2.4 18.4 4.6 27.8 6.4V423H411v475.5zM596.4 903.5c14.4-3 28.5-6.8 42.3-11.4V765.8h-42.3v137.7zM514 114.3c-219.9 0-398.8 178.9-398.8 398.8 0 153.3 87 286.7 214.2 353.5v-509h140.9v552c14.4 1.6 29 2.4 43.7 2.4 14.3 0 28.4-0.8 42.3-2.2V714.2h14.1V485.9h-67.7V357.6h157.9c63.4 0 114.2 50.7 114.2 114.2v14.1H666.2v228.3h12.7v162.1c137.9-62.9 234-202 234-363.2 0-219.8-179-398.8-398.9-398.8z" /></svg>