<?xml version="1.0" standalone="no"?><!DOCTYPE svg PUBLIC "-//W3C//DTD SVG 1.1//EN" "http://www.w3.org/Graphics/SVG/1.1/DTD/svg11.dtd"><svg class="icon" width="512px" height="512.00px" viewBox="0 0 1024 1024" version="1.1" xmlns="http://www.w3.org/2000/svg"><path fill="#333333" d="M1024 512.512C1024 794.978462 794.781538 1024 511.960615 1024 229.179077 1024 0 794.978462 0 512.512 0 295.778462 134.971077 110.513231 325.553231 36.076308 383.133538 12.839385 446.070154 0 511.960615 0c65.969231 0 128.866462 12.8 186.486154 36.076308C889.068308 110.513231 1024 295.739077 1024 512.512zM315.155692 404.676923c0 86.173538 44.189538 160.807385 108.386462 197.316923a177.979077 177.979077 0 0 0 88.418461 23.906462c30.680615 0 59.628308-8.192 85.543385-22.291693 65.732923-35.84 111.300923-111.379692 111.300923-198.931692 0-121.934769-88.300308-221.144615-196.844308-221.144615-108.504615 0-196.804923 99.249231-196.804923 221.144615z m198.892308 586.161231c149.543385 0 283.017846-68.765538 370.451692-176.443077-10.318769-84.913231-93.065846-157.184-210.195692-193.260308-44.228923 39.778462-100.745846 63.724308-162.382769 63.724308-63.015385 0-120.635077-25.206154-165.297231-66.717539-113.939692 32.492308-197.395692 98.855385-216.969846 178.294154a476.356923 476.356923 0 0 0 384.393846 194.402462z" /></svg>