<?xml version="1.0" standalone="no"?><!DOCTYPE svg PUBLIC "-//W3C//DTD SVG 1.1//EN" "http://www.w3.org/Graphics/SVG/1.1/DTD/svg11.dtd"><svg class="icon" width="512px" height="512.00px" viewBox="0 0 1024 1024" version="1.1" xmlns="http://www.w3.org/2000/svg"><path fill="#333333" d="M545.585 95.326l0.582 0.465L746.4 257.939v72.444l69 0.002c53.534 0 97.134 42.52 98.848 95.62l0.039 1.613 0.013 1.635v406.966h13.8c16.513 0 29.9 13.383 29.9 29.89 0 16.273-13.007 29.508-29.194 29.883l-0.706 0.008h-276v-9.197h-0.001l0.001-168.995-0.019-2.3c-1.228-75.764-63.05-136.804-139.131-136.804-76.082 0-137.903 61.04-139.131 136.804l-0.019 2.3-0.001 118.411h0.001V896H90.9C74.387 896 61 882.618 61 866.11c0-16.272 13.007-29.507 29.194-29.882l0.706-0.008 18.4-0.001V429.253c0-54.057 43.398-97.981 97.265-98.854l1.635-0.014 69-0.002v-72.545l202.597-162.23c19.22-15.39 46.49-15.47 65.788-0.282zM515.25 638.484l1.312 0.011c43.219 0.7 78.038 35.942 78.038 79.313V896H435.9V717.808c0-43.809 35.526-79.324 79.35-79.324z m272.89-92.111h-0.706c-16.19 0.19-29.347 13.277-29.532 29.548-0.186 16.342 12.783 29.77 29.064 30.219l0.494 0.01 25.3 0.287h0.706c16.19-0.191 29.347-13.278 29.532-29.549 0.186-16.342-12.783-29.77-29.064-30.218l-0.494-0.01-25.3-0.287z m-577.3 0h-0.706c-16.19 0.19-29.347 13.277-29.532 29.548-0.186 16.342 12.783 29.77 29.064 30.219l0.494 0.01 25.3 0.287h0.706c16.19-0.191 29.347-13.278 29.532-29.549 0.186-16.342-12.783-29.77-29.064-30.218l-0.494-0.01-25.3-0.287z m392.775-88.954l-186.3 1.15-0.705 0.012c-16.185 0.475-29.11 13.79-29.01 30.062 0.101 16.343 13.304 29.54 29.59 29.705h0.495l186.3-1.15 0.705-0.012c16.185-0.475 29.11-13.79 29.01-30.062-0.103-16.507-13.572-29.807-30.085-29.705z m0-128.758l-186.3 1.15-0.705 0.013c-16.185 0.474-29.11 13.79-29.01 30.061 0.101 16.343 13.304 29.541 29.59 29.705l0.495 0.001 186.3-1.15 0.705-0.013c16.185-0.474 29.11-13.79 29.01-30.061-0.103-16.508-13.572-29.807-30.085-29.706z"  /></svg>